 <svg class="svg-logo" xmlns="http://www.w3.org/2000/svg" xmlns:xlink="http://www.w3.org/1999/xlink" viewBox="0 0 66.8 68.9">
    <defs>
        <linearGradient id="linear-gradient" x1="57.38" y1="33.89" x2="35.76" y2="92.64" gradientUnits="userSpaceOnUse">
            <stop offset="0" stop-color="lime"/>
            <stop offset="0.29" stop-color="#00fd00"/>
            <stop offset="0.42" stop-color="#00f500"/>
            <stop offset="0.53" stop-color="#00e800"/>
            <stop offset="0.62" stop-color="#00d600"/>
            <stop offset="0.7" stop-color="#00be00"/>
            <stop offset="0.77" stop-color="#00a000"/>
            <stop offset="0.84" stop-color="#007d00"/>
            <stop offset="0.9" stop-color="#005400"/>
            <stop offset="0.96" stop-color="#002700"/>
            <stop offset="1"/>
        </linearGradient>
        <linearGradient id="linear-gradient-2" x1="80.48" y1="-2.3" x2="-20.39" y2="76.33" gradientUnits="userSpaceOnUse">
            <stop offset="0"/>
            <stop offset="0.02" stop-color="#002400"/>
            <stop offset="0.06" stop-color="#005700"/>
            <stop offset="0.1" stop-color="#008400"/>
            <stop offset="0.14" stop-color="#0a0"/>
            <stop offset="0.18" stop-color="#00c900"/>
            <stop offset="0.22" stop-color="#00e100"/>
            <stop offset="0.26" stop-color="#00f200"/>
            <stop offset="0.31" stop-color="#00fc00"/>
            <stop offset="0.37" stop-color="lime"/>
            <stop offset="0.38" stop-color="lime"/>
            <stop offset="0.42" stop-color="#00f800"/>
            <stop offset="0.48" stop-color="#00e400"/>
            <stop offset="0.56" stop-color="#00c300"/>
            <stop offset="0.65" stop-color="#009500"/>
            <stop offset="0.74" stop-color="#005a00"/>
            <stop offset="0.85" stop-color="#001300"/>
            <stop offset="0.87"/>
        </linearGradient>
    </defs>
    <title>virusoftware logo</title>
    <g id="Layer_1" data-name="Layer 1">
        <path class="cls-1" d="M27.9,55a.54.54,0,0,1,.68-.73c8,3,26.5-6.3,52.82-30.15,11-10-34.55,51.92-40.19,59.56a.55.55,0,0,1-.95-.11Z" transform="translate(-16.3 -15.01)"/>
    </g>
    <g id="Layer_3" data-name="Layer 3">
    <path class="cls-2" d="M26.79,49.54a.66.66,0,0,0,.7.38c3.8-.59,28.95-5.51,53.54-34.35.14-.16,0-.39,0-.55L16.86,25.84a.66.66,0,0,0-.49.93Z" transform="translate(-16.3 -15.01)"/>
    </g>
</svg>